<?xml version="1.0" standalone="no"?>
<!DOCTYPE svg PUBLIC "-//W3C//DTD SVG 20010904//EN"
 "http://www.w3.org/TR/2001/REC-SVG-20010904/DTD/svg10.dtd">
<svg version="1.0" xmlns="http://www.w3.org/2000/svg"
 width="270.000000pt" height="270.000000pt" viewBox="0 0 270.000000 270.000000"
 preserveAspectRatio="xMidYMid meet">
<metadata>
Created by potrace 1.11, written by Peter Selinger 2001-2013
</metadata>
<g transform="translate(0.000000,270.000000) scale(0.100000,-0.100000)"
fill="#000000" stroke="none">
<path d="M0 1350 l0 -1350 972 2 972 3 1 248 c0 137 -4 251 -9 254 -5 3 -332
6 -726 5 l-718 0 -4 21 c-2 12 -3 505 -3 1095 l1 1072 -243 0 -243 0 0 -1350z"/>
<path d="M730 1731 c0 -766 3 -970 13 -973 10 -3 430 -3 462 1 7 1 10 165 10
475 0 261 2 473 5 471 3 -2 111 -215 240 -474 129 -259 237 -471 240 -471 3 0
111 212 240 471 129 259 238 473 241 475 4 2 7 -375 7 -839 1 -463 1 -848 1
-854 1 -10 59 -13 256 -13 l255 0 0 1350 0 1350 -258 0 -257 0 -240 -479
c-131 -264 -242 -478 -246 -475 -6 3 -167 301 -318 588 -17 33 -36 65 -42 73
-6 7 -8 13 -4 13 4 0 2 6 -4 14 -6 7 -23 35 -37 62 -14 27 -44 84 -67 127
l-41 77 -228 0 -228 0 0 -969z"/>
</g>
</svg>
