<?xml version="1.0" standalone="no"?>
<!DOCTYPE svg PUBLIC "-//W3C//DTD SVG 20010904//EN"
 "http://www.w3.org/TR/2001/REC-SVG-20010904/DTD/svg10.dtd">
<svg version="1.0" xmlns="http://www.w3.org/2000/svg"
 width="550.000000pt" height="550.000000pt" viewBox="0 0 550.000000 550.000000"
 preserveAspectRatio="xMidYMid meet">
<metadata>
Created by potrace 1.11, written by Peter Selinger 2001-2013
</metadata>
<g transform="translate(0.000000,550.000000) scale(0.100000,-0.100000)"
fill="#000000" stroke="none">
<path d="M5045 3938 c-55 -72 -148 -194 -208 -272 -59 -77 -113 -148 -120
-156 -15 -17 -140 -180 -177 -230 -14 -18 -34 -45 -46 -59 -25 -31 -172 -222
-258 -336 -34 -44 -65 -85 -71 -91 -5 -6 -79 -102 -164 -213 -85 -110 -159
-201 -165 -200 -6 0 -30 26 -52 57 -42 57 -351 459 -382 497 -9 11 -44 56 -77
100 -33 44 -63 82 -66 85 -3 3 -25 32 -50 65 -24 33 -50 66 -56 75 -34 42
-182 234 -232 300 -30 41 -60 80 -66 86 -5 6 -19 23 -30 38 -11 16 -25 33 -30
40 -6 6 -24 29 -40 51 -87 116 -218 280 -226 283 -5 2 -9 -504 -9 -1301 0
-1234 1 -1305 18 -1309 9 -2 42 -3 72 -3 l55 1 2 1094 c2 601 5 1095 7 1097 2
3 10 -6 17 -19 7 -12 58 -81 114 -153 56 -71 144 -186 196 -255 51 -69 96
-127 99 -130 3 -3 57 -72 120 -155 63 -82 118 -154 122 -160 19 -23 242 -315
358 -468 69 -91 130 -166 136 -166 6 -1 53 54 105 122 51 67 97 127 101 132 5
6 34 44 65 85 32 41 60 77 63 80 3 3 44 55 90 115 46 61 97 126 112 145 16 19
32 40 36 45 4 6 60 78 123 160 64 83 152 200 197 260 45 61 88 117 95 127 6 9
48 66 92 127 44 60 82 110 85 111 3 0 5 -493 5 -1095 0 -733 3 -1096 10 -1098
9 -2 82 -1 125 2 13 1 15 153 15 1305 0 718 -2 1306 -5 1309 -3 3 -50 -54
-105 -125z"/>
<path d="M364 3962 l-30 -3 0 -1252 c-1 -689 3 -1254 7 -1257 6 -4 1461 -5
1520 -1 12 1 15 14 15 69 l-1 67 -684 2 c-376 1 -689 4 -695 6 -10 4 -12 268
-12 1177 1 645 -1 1176 -4 1180 -6 10 -71 16 -116 12z"/>
</g>
</svg>
